<svg width="25" height="27" viewBox="0 0 25 27" fill="none" xmlns="http://www.w3.org/2000/svg">
<g clip-path="url(#clip0_1_16)">
<g filter="url(#filter0_d_1_16)">
<path fill-rule="evenodd" clip-rule="evenodd" d="M6.92519 20.6549C7.14593 20.8538 7.29835 20.9966 7.7693 21.444C8.23058 21.8822 8.45365 22.0892 8.65764 22.2624C8.7427 22.3341 8.81523 22.5257 8.84397 22.8105C8.86761 23.0448 8.85938 23.3062 8.83072 23.5581C8.82081 23.6452 8.81125 23.7081 8.80577 23.738C8.74428 24.074 9.00037 24.3844 9.34197 24.3879C9.64938 24.391 9.88624 24.3948 10.5132 24.406C10.67 24.4088 10.67 24.4088 10.8274 24.4115C12.5316 24.4408 13.402 24.4328 14.0267 24.3542C14.6944 24.2703 15.3821 23.4639 15.9765 22.452C16.4802 23.3474 17.1789 24.2217 17.8844 24.3354C18.1086 24.3712 18.3797 24.3823 18.694 24.375C18.9283 24.3697 19.1762 24.3542 19.4265 24.3319C19.6152 24.315 19.7655 24.298 19.8553 24.2864C20.1871 24.2434 20.4042 23.9169 20.3156 23.5942C20.2964 23.5246 20.2657 23.3967 20.2346 23.2357C20.1987 23.0491 20.1727 22.8668 20.1608 22.7008C20.1534 22.5955 20.1519 22.5002 20.1566 22.4178C20.1649 22.2742 20.1675 22.1937 20.1715 22.0079C20.1731 21.9388 20.1731 21.9388 20.1751 21.8782C20.1829 21.6801 20.2095 21.492 20.2956 21.0818C20.3326 20.9038 20.5119 20.5631 20.7944 20.1415C20.8785 20.0159 20.9705 19.8848 21.069 19.7494C21.2558 19.4927 21.4569 19.2333 21.6581 18.9851C21.7786 18.8364 21.8717 18.7251 21.9236 18.6648C22.3587 18.0414 22.8226 17.021 22.9931 16.4244C23.1567 15.851 23.2876 14.795 23.3681 13.7571C23.4121 13.1683 23.4285 12.6936 23.4285 11.9491C23.4285 11.8185 23.4285 11.8185 23.4288 11.7106C23.4292 11.534 23.4292 11.4672 23.4286 11.3846C23.4271 11.1591 23.4205 10.9355 23.3987 10.3653C23.3518 9.17023 22.6969 8.39761 21.7318 8.24858C20.9108 8.1218 19.9115 8.80371 19.9115 8.80371C19.9115 8.80371 19.6891 8.03582 19.5388 7.79877C19.2947 7.41786 18.6662 6.93246 18.1856 6.8379C17.6914 6.74193 17.1055 6.75254 16.5675 6.84771C16.0963 6.93202 15.627 7.3527 15.3555 7.80646C15.1613 8.13017 15.3439 7.78929 15.1497 7.45444C14.8808 6.99321 14.2547 6.5802 13.6585 6.4583C13.1533 6.35383 12.5746 6.39362 12.0459 6.55074C11.3658 6.75396 11.2575 7.2715 11.2305 7.12332C11.14 6.62654 11.1317 6.65918 11.0753 6.30479C10.8659 4.98986 10.6316 4.08003 10.2762 3.2861C10.2967 3.33174 10.1461 2.98919 10.0913 2.87108C9.99637 2.66655 9.90165 2.48142 9.79752 2.30337C9.4766 1.75457 9.10881 1.34368 8.64736 1.11025C7.84599 0.704442 6.64484 0.901935 6.0755 1.56651C5.51009 2.22696 5.41582 3.33121 5.55821 4.69765C5.61259 5.22819 5.80317 6.19675 5.97599 6.91271C6.0371 7.16121 6.09064 7.38784 6.18884 7.80646C6.20572 7.87768 6.20572 7.87768 6.22276 7.9489C6.29873 8.26574 6.36534 8.52642 6.44487 8.81248C6.43652 8.78266 6.58736 9.31785 6.61948 9.4363C6.63017 9.47583 6.63017 9.47583 6.64076 9.51554C6.70072 9.7414 6.75934 9.98494 6.85093 10.3914C6.90106 10.6148 6.94997 10.8536 6.99781 11.1066C7.12828 11.7968 7.12893 11.6531 7.00333 11.5059C6.91656 11.4043 6.83496 11.3119 6.75613 11.2268C6.60959 11.0686 6.47488 10.9378 6.347 10.8335C5.41522 10.0711 4.84427 9.73426 4.06042 9.66026C2.77465 9.53673 1.55444 10.445 1.37097 11.6707C1.25813 12.4223 1.29448 12.7682 1.64215 13.4324C1.83347 13.7912 2.1571 14.2247 2.76094 14.9707C2.79789 15.0163 2.79789 15.0163 2.83482 15.0618C3.57602 15.9752 3.65676 16.0767 3.83301 16.3319C4.3094 17.0232 5.46912 19.0082 5.67994 19.2747L6.92519 20.6549Z" fill="black"/>
<path fill-rule="evenodd" clip-rule="evenodd" d="M3.69017 14.3677C3.65362 14.3227 3.65362 14.3227 3.61717 14.2777C3.06302 13.593 2.75916 13.1861 2.61612 12.9178C2.39167 12.489 2.37946 12.3728 2.46035 11.834C2.55543 11.1988 3.24146 10.6882 3.95597 10.7569C4.45036 10.8035 4.88229 11.0584 5.65003 11.6865C5.73315 11.7543 5.83337 11.8517 5.94801 11.9754C6.01581 12.0486 6.08773 12.13 6.16539 12.221C6.28202 12.3577 6.67508 12.8386 6.61719 12.7686C6.70259 12.8713 6.76366 12.9509 6.83342 13.0484C6.97164 13.2457 7.0494 13.3553 7.15471 13.4957C7.10533 13.4298 7.47009 13.934 7.54734 14.0077C7.95653 14.3983 8.54907 14.0693 8.51195 13.5488C8.50575 13.4619 8.48533 13.368 8.44266 13.2041C8.27393 12.0009 8.21492 11.6147 8.08019 10.902C8.03015 10.6373 7.97877 10.3865 7.92567 10.1497C7.83115 9.73031 7.76945 9.47401 7.70543 9.23287C7.69405 9.19017 7.69405 9.19017 7.68263 9.14793C7.64884 9.02335 7.49573 8.48009 7.50593 8.51653C7.43052 8.24528 7.36706 7.99697 7.29396 7.69207C7.27735 7.62261 7.27735 7.62261 7.26077 7.55268C7.1631 7.13628 7.10819 6.90385 7.04624 6.65194C6.88469 5.98267 6.70218 5.05512 6.65393 4.58441C6.54309 3.52071 6.61957 2.62483 6.91217 2.28305C7.14063 2.01637 7.78815 1.9099 8.14991 2.0931C8.38649 2.21278 8.62291 2.47691 8.84661 2.85945C8.93128 3.00423 9.01071 3.15947 9.09202 3.3347C9.14126 3.44083 9.28725 3.77293 9.27081 3.73621C9.57972 4.42641 9.79192 5.2503 9.98744 6.47795C10.0453 6.8417 10.1169 7.25379 10.2087 7.75797C10.236 7.90747 10.236 7.90747 10.2634 8.05634C10.706 10.4582 10.6736 10.2762 10.68 10.4678C10.7032 11.1666 11.7347 11.1829 11.7801 10.4852C11.7945 10.264 11.7894 10.0664 11.7638 9.49901C11.7602 9.41874 11.7602 9.41874 11.7568 9.33877C11.7344 8.81603 11.7357 8.51529 11.7666 8.34434C11.8229 8.03263 12.1028 7.68344 12.3605 7.60642C12.7224 7.49886 13.119 7.4716 13.4366 7.53729C13.7407 7.59947 14.0956 7.83356 14.1974 8.0082C14.3201 8.2197 14.4253 8.54191 14.5059 8.94131C14.571 9.26367 14.6158 9.60949 14.6473 9.9786C14.6571 10.0934 14.6635 10.1822 14.6733 10.329C14.6775 10.3904 14.6775 10.3904 14.6817 10.4411C14.684 10.4665 14.684 10.4665 14.6898 10.5067C14.6942 10.5349 14.6942 10.5349 14.7153 10.6062C14.7259 10.8086 14.7259 10.8086 15.539 10.8837C15.7817 10.5902 15.7817 10.5902 15.7751 10.5387C15.8149 10.3649 15.8392 10.1712 15.8739 9.80711C15.8961 9.57046 15.9072 9.45412 15.9203 9.33344C15.9743 8.83389 16.0429 8.5165 16.1267 8.37698C16.2305 8.20338 16.5963 7.9616 16.7604 7.93224C17.1724 7.85936 17.6249 7.85117 17.9743 7.919C18.1325 7.95015 18.5185 8.24821 18.6099 8.39078C18.7975 8.68683 18.98 9.64125 19.0827 10.5882C19.0665 10.6503 19.0665 10.6503 19.3188 11.0106C20.1858 10.9118 20.1858 10.9118 20.1615 10.7552C20.1843 10.6994 20.2025 10.6349 20.2283 10.5347C20.2903 10.3001 20.3314 10.1639 20.3925 10.0113C20.4349 9.90571 20.4795 9.81544 20.5252 9.74358C20.7025 9.46462 21.1613 9.2751 21.5637 9.33724C21.9959 9.40398 22.2713 9.72888 22.2979 10.4079C22.3193 10.9667 22.3256 11.1815 22.3271 11.3923C22.3276 11.4701 22.3276 11.5326 22.3272 11.7082C22.327 11.8168 22.327 11.8168 22.3269 11.9491C22.3269 12.6672 22.3115 13.1146 22.2697 13.6734C22.1953 14.6329 22.0698 15.6456 21.9339 16.1219C21.7951 16.6075 21.3809 17.5185 21.053 17.9924C21.0297 18.0148 20.9299 18.134 20.8023 18.2915C20.5899 18.5535 20.3775 18.8276 20.1783 19.1012C20.0717 19.2476 19.9717 19.3904 19.8792 19.5284C19.5213 20.0627 19.2916 20.499 19.2173 20.8566C19.1197 21.3213 19.0849 21.5678 19.0744 21.8351C19.0718 21.9107 19.0718 21.9107 19.0702 21.9841C19.0665 22.1575 19.0642 22.2275 19.0569 22.3543C19.0492 22.4875 19.0514 22.6292 19.0621 22.779C19.0773 22.9934 19.0621 23.2864 19.0621 23.2864C19.0621 23.2864 18.8761 23.269 18.6686 23.2738C18.4153 23.2796 18.2045 23.271 18.0589 23.2477C17.8488 23.2139 17.2814 22.5039 16.9909 21.9507C16.547 21.1041 15.4692 21.1452 15.0274 21.8928C14.629 22.5711 14.0586 23.24 13.8892 23.2613C13.339 23.3305 12.487 23.3383 10.8464 23.3101C10.6895 23.3074 10.6895 23.3074 10.5328 23.3046C9.90285 23.2934 9.92706 23.3997 9.93996 23.2864C9.97678 22.9628 9.9726 23.0234 9.93996 22.6999C9.88523 22.1575 9.71781 21.7151 9.36895 21.4213C9.18849 21.268 8.97264 21.0677 8.5391 20.6559C8.0438 20.1854 7.88868 20.04 7.69752 19.872L6.5206 18.5638C6.39141 18.3986 5.25744 16.4577 4.73976 15.7064C4.53839 15.4148 4.46306 15.3201 3.69017 14.3677ZM17.6561 14.3732V19.4536C17.6561 20.188 18.7577 20.188 18.7577 19.4536V14.3732C18.7577 13.6389 17.6561 13.6389 17.6561 14.3732ZM14.6722 14.3724L14.6957 19.4734C14.6991 20.2077 15.8006 20.2027 15.7973 19.4683L15.7738 14.3673C15.7704 13.633 14.6688 13.638 14.6722 14.3724ZM12.8963 19.4448L12.8655 14.4129C12.861 13.6785 11.7594 13.6853 11.7639 14.4197L11.7948 19.4516C11.7993 20.186 12.9008 20.1792 12.8963 19.4448Z" fill="white"/>
</g>
</g>
<defs>
<filter id="filter0_d_1_16" x="-0.686218" y="-0.0999756" width="26.1153" height="27.5271" filterUnits="userSpaceOnUse" color-interpolation-filters="sRGB">
<feFlood flood-opacity="0" result="BackgroundImageFix"/>
<feColorMatrix in="SourceAlpha" type="matrix" values="0 0 0 0 0 0 0 0 0 0 0 0 0 0 0 0 0 0 127 0" result="hardAlpha"/>
<feOffset dy="1"/>
<feGaussianBlur stdDeviation="1"/>
<feColorMatrix type="matrix" values="0 0 0 0 0 0 0 0 0 0 0 0 0 0 0 0 0 0 0.298656 0"/>
<feBlend mode="normal" in2="BackgroundImageFix" result="effect1_dropShadow_1_16"/>
<feBlend mode="normal" in="SourceGraphic" in2="effect1_dropShadow_1_16" result="shape"/>
</filter>
<clipPath id="clip0_1_16">
<rect width="25" height="27" fill="white"/>
</clipPath>
</defs>
</svg>
